<svg xmlns="http://www.w3.org/2000/svg" width="104" height="22" fill="none">
  <path
    fill="#fff"
    d="M29.326 11.614c.02.946-.143 1.748-.39 2.615H17.403c.012 1.809 1.023 2.718 2.827 2.718 1.298 0 2.405-.5 3.093-1.439h5.17c-1.588 3.557-4.973 5.57-8.937 5.57-4.141 0-6.952-3.025-6.952-6.873 0-5.232 3.976-9.284 9.576-9.284 4.309 0 7.147 2.903 7.147 6.691v.002Zm-11.274-.279h6.48c-.206-1.564-1.206-2.397-2.852-2.397-1.7 0-2.934 1.007-3.628 2.397ZM11.319 15.56H6.373L9.352.92H3.996L0 20.592h12.55l.308-1.498a7.195 7.195 0 0 1-1.541-3.534h.002ZM42.271 16.534c0-.31.03-.618.085-.937h4.895c-.026.132-.04.257-.04.372 0 .858.65 1.313 1.644 1.313.894 0 1.893-.48 1.893-1.451 0-.8-1.108-1.024-2.46-1.286-2.048-.41-4.645-.925-4.645-3.733 0-3.828 3.204-5.88 7.376-5.88 3.543 0 5.737 1.849 5.737 4.346 0 .244-.03.516-.076.788h-4.762c.017-.103.026-.203.026-.3 0-.704-.442-1.178-1.505-1.178-.983 0-1.797.52-1.797 1.348 0 .817 1.144 1.024 2.518 1.296 2.066.394 4.701.908 4.701 3.733 0 3.94-3.365 6.114-7.67 6.114-3.537 0-5.918-1.781-5.918-4.545h-.002Z"
  />
  <path
    fill="#FC0"
    d="M90.637 11.614c.02.946-.143 1.748-.39 2.615H78.713c.012 1.809 1.022 2.718 2.826 2.718 1.298 0 2.406-.5 3.093-1.439h5.17c-1.587 3.557-4.972 5.57-8.937 5.57-4.14 0-6.952-3.025-6.952-6.873 0-5.232 3.977-9.284 9.577-9.284 4.308 0 7.147 2.903 7.147 6.691v.002Zm-11.273-.279h6.48c-.206-1.564-1.206-2.397-2.852-2.397-1.7 0-2.934 1.007-3.628 2.397ZM70.873 10.305c1.353.761 2.098 2.158 2.098 3.787 0 3.888-3.497 6.5-7.478 6.5h-9.226L60.264.92h8.594c3.239 0 5.368 1.957 5.368 4.449 0 2.139-1.408 3.935-3.354 4.936h.001Zm-5.534 6.072c1.386 0 2.474-1.025 2.474-2.407 0-.947-.61-1.615-1.7-1.615H63.01l-.822 4.022h3.152-.001Zm1.322-7.68c1.337 0 2.321-.96 2.321-2.303-.02-.92-.582-1.523-1.614-1.523h-2.83l-.781 3.826h2.904ZM103.147 9.64 104 5.418h-3.963l.87-4.43h-1.059l-3.98-.004-.906 4.434H91.88l-.85 4.224h3.07c-1 4.947-1.14 5.511-1.14 6.347 0 2.823 1.895 4.605 5.09 4.605h2.877l.996-4.978h-1.964c-1.316-.012-1.877-.53-1.728-1.464.047-.295.088-.234.974-4.51h3.942Z"
  />
  <path
    fill="#fff"
    d="M39.802.987h-1.059L34.762.983l-.905 4.434h-3.082l-.85 4.224h3.07c-1 4.947-1.14 5.511-1.14 6.347 0 2.823 1.895 4.605 5.09 4.605h2.877l.996-4.978h-1.964c-1.316-.012-1.877-.53-1.728-1.464"
  />
  <path
    fill="#fff"
    d="M39.58 5.414h3.981L42.71 9.64h-2.563l-1.707 1.392 1.141-5.617Z"
  />
</svg>
